<svg xmlns="http://www.w3.org/2000/svg" viewBox="0 0 1200 760" font-family="Segoe UI,Arial" font-size="15">
<rect width="1200" height="760" fill="#0f172a"/>
<text x="30" y="42" font-size="18" font-weight="bold" fill="#fff">Mathematics - Calculus Basics</text><circle cx="340" cy="36" r="6" fill="#ef4444"/><text x="352" y="42" fill="#fca5a5" font-size="14">LIVE  45:12</text>
<text x="1170" y="42" text-anchor="end" fill="#94a3b8">28 participants</text>
<rect x="30" y="65" width="820" height="520" rx="12" fill="#1e293b"/>
<rect x="60" y="95" width="760" height="460" rx="8" fill="#f8fafc"/>
<text x="440" y="160" text-anchor="middle" font-size="22" font-weight="bold" fill="#1e293b">Shared Screen / Whiteboard</text>
<text x="120" y="250" font-size="30" fill="#4f46e5">d/dx (x^2) = 2x</text><text x="120" y="320" font-size="30" fill="#16a34a">integral 2x dx = x^2 + C</text>
<path d="M440 480 Q560 200 660 260" stroke="#db2777" stroke-width="4" fill="none"/>
<rect x="680" y="470" width="130" height="80" rx="8" fill="#334155"/><text x="745" y="515" text-anchor="middle" fill="#fff" font-size="13">Mr. Kumar (Tutor)</text>
<rect x="870" y="65" width="300" height="520" rx="12" fill="#1e293b"/>
<text x="890" y="100" font-weight="bold" fill="#fff">Participants</text>
<g fill="#334155"><rect x="890" y="115" width="125" height="85" rx="8"/><rect x="1025" y="115" width="125" height="85" rx="8"/><rect x="890" y="210" width="125" height="85" rx="8"/><rect x="1025" y="210" width="125" height="85" rx="8"/></g>
<g fill="#cbd5e1" font-size="12" text-anchor="middle"><text x="952" y="162">Anu</text><text x="1087" y="162">Rahul</text><text x="952" y="257">Priya</text><text x="1087" y="257">You</text></g>
<text x="890" y="330" font-weight="bold" fill="#fff">Chat</text>
<g font-size="13" fill="#cbd5e1"><text x="890" y="360">Anu: Can you repeat that?</text><text x="890" y="385">Rahul: (raised hand)</text><text x="890" y="410">Priya: Got it, thanks!</text></g>
<rect x="890" y="535" width="260" height="34" rx="8" fill="#334155"/><text x="905" y="557" font-size="13" fill="#94a3b8">Send message...</text>
<g fill="#334155"><circle cx="380" cy="660" r="30"/><circle cx="460" cy="660" r="30"/><circle cx="540" cy="660" r="30"/><circle cx="620" cy="660" r="30"/><circle cx="700" cy="660" r="30"/></g>
<g fill="#fff" font-size="12" text-anchor="middle"><text x="380" y="665">MIC</text><text x="460" y="665">CAM</text><text x="540" y="665">SHARE</text><text x="620" y="665">HAND</text><text x="700" y="665">REC</text></g>
<rect x="760" y="635" width="120" height="50" rx="25" fill="#ef4444"/><text x="820" y="666" text-anchor="middle" fill="#fff" font-weight="bold">Leave</text>
<g font-size="12" fill="#94a3b8" text-anchor="middle"><text x="380" y="712">Mic</text><text x="460" y="712">Camera</text><text x="540" y="712">Share Screen</text><text x="620" y="712">Raise Hand</text><text x="700" y="712">Record</text></g>
</svg>
